<?xml version="1.0" encoding="UTF-8" standalone="no"?>
<svg width="797px" height="357px" viewBox="0 0 797 357" version="1.1" xmlns="http://www.w3.org/2000/svg" xmlns:xlink="http://www.w3.org/1999/xlink" xmlns:sketch="http://www.bohemiancoding.com/sketch/ns">
    <!-- Generator: Sketch 3.3.2 (12043) - http://www.bohemiancoding.com/sketch -->
    <title>mmm-logo</title>
    <desc>Created with Sketch.</desc>
    <defs></defs>
    <g id="Page-1" stroke="none" stroke-width="1" fill="none" fill-rule="evenodd" sketch:type="MSPage">
        <path d="M0,24.9970956 C0,11.1915809 11.1904484,0 25.0026541,0 L771.997346,0 C785.80593,0 797,11.1994322 797,24.9970956 L797,332.002904 C797,345.808419 785.809552,357 771.997346,357 L25.0026541,357 C11.1940695,357 0,345.800568 0,332.002904 L0,24.9970956 Z M16,35.0029716 C16,21.1942117 27.183479,10 40.9909187,10 L756.009081,10 C769.811185,10 781,21.188561 781,35.0029716 L781,321.997028 C781,335.805788 769.816521,347 756.009081,347 L40.9909187,347 C27.1888154,347 16,335.811439 16,321.997028 L16,35.0029716 Z" id="Rectangle-outer" fill="#000000" sketch:type="MSShapeGroup"></path>
        <text id="mmm-Text" sketch:type="MSTextLayer" font-family="Josefin Sans" font-size="129" font-weight="normal" line-spacing="93" fill="#000000">
            <tspan x="28" y="131">made &amp;</tspan>
            <tspan x="28" y="224">maintained by</tspan>
            <tspan x="28" y="317">mauwi</tspan>
        </text>
    </g>
</svg>