<?xml version="1.0" encoding="UTF-8"?>
<svg width="512px" height="769px" viewBox="0 0 512 769" version="1.1"
     xmlns="http://www.w3.org/2000/svg">
    <!-- Generator: Sketch 50.2 (55047) - http://www.bohemiancoding.com/sketch -->
    <title>nodejs-logo</title>
    <desc>Created with Sketch.</desc>
    <defs></defs>
    <g id="Page-1" stroke="none" stroke-width="1" fill="none" fill-rule="evenodd">
        <g id="nodejs-logo">
            <rect id="Rectangle" fill="#689F63" x="0" y="0" width="512" height="769"></rect>
            <g id="Node.js_logo" transform="translate(35.000000, 249.000000)" fill="#333333">
                <path d="M218.647,270.93 C217.187,270.93 215.737,270.547 214.457,269.81 L201.12,261.914 C199.128,260.8 200.1,260.406 200.757,260.179 C203.413,259.249 203.952,259.039 206.787,257.429 C207.085,257.259 207.475,257.319 207.78,257.499 L218.026,263.579 C218.396,263.779 218.921,263.779 219.264,263.579 L259.214,240.519 C259.584,240.309 259.824,239.879 259.824,239.439 L259.824,193.339 C259.824,192.879 259.584,192.469 259.206,192.239 L219.272,169.199 C218.902,168.979 218.412,168.979 218.042,169.199 L178.116,192.239 C177.729,192.459 177.483,192.889 177.483,193.329 L177.483,239.429 C177.483,239.869 177.723,240.289 178.103,240.499 L189.043,246.819 C194.983,249.789 198.613,246.289 198.613,242.769 L198.613,197.269 C198.613,196.619 199.123,196.119 199.773,196.119 L204.833,196.119 C205.463,196.119 205.983,196.619 205.983,197.269 L205.983,242.789 C205.983,250.709 201.663,255.259 194.153,255.259 C191.843,255.259 190.023,255.259 184.943,252.759 L174.463,246.719 C171.873,245.219 170.273,242.419 170.273,239.429 L170.273,193.329 C170.273,190.329 171.873,187.529 174.463,186.049 L214.453,162.979 C216.983,161.549 220.343,161.549 222.853,162.979 L262.793,186.059 C265.373,187.549 266.983,190.339 266.983,193.339 L266.983,239.439 C266.983,242.429 265.373,245.219 262.793,246.719 L222.853,269.789 C221.573,270.529 220.123,270.909 218.643,270.909"
                      id="Shape" fill-rule="nonzero"></path>
                <path d="M230.987,239.164 C213.507,239.164 209.842,231.14 209.842,224.41 C209.842,223.77 210.358,223.26 210.999,223.26 L216.159,223.26 C216.729,223.26 217.209,223.675 217.299,224.238 C218.079,229.496 220.399,232.148 230.969,232.148 C239.389,232.148 242.969,230.246 242.969,225.781 C242.969,223.211 241.949,221.301 228.869,220.021 C217.929,218.941 211.169,216.531 211.169,207.781 C211.169,199.721 217.969,194.921 229.359,194.921 C242.149,194.921 248.489,199.361 249.289,208.901 C249.319,209.231 249.199,209.551 248.979,209.791 C248.759,210.021 248.449,210.161 248.129,210.161 L242.939,210.161 C242.399,210.161 241.929,209.781 241.819,209.261 C240.569,203.731 237.549,201.961 229.339,201.961 C220.149,201.961 219.079,205.161 219.079,207.561 C219.079,210.471 220.339,211.321 232.739,212.961 C245.019,214.591 250.849,216.891 250.849,225.521 C250.849,234.221 243.589,239.211 230.929,239.211 L230.987,239.164 Z M279.589,190.321 L280.929,190.321 C282.029,190.321 282.239,189.551 282.239,189.101 C282.239,187.921 281.429,187.921 280.979,187.921 L279.599,187.921 L279.589,190.321 Z M277.959,186.541 L280.929,186.541 C281.949,186.541 283.949,186.541 283.949,188.821 C283.949,190.411 282.929,190.741 282.319,190.941 C283.509,191.021 283.589,191.801 283.749,192.901 C283.829,193.591 283.959,194.781 284.199,195.181 L282.369,195.181 C282.319,194.781 282.039,192.581 282.039,192.461 C281.919,191.971 281.749,191.731 281.139,191.731 L279.629,191.731 L279.629,195.191 L277.959,195.191 L277.959,186.541 Z M274.389,190.841 C274.389,194.421 277.279,197.321 280.829,197.321 C284.409,197.321 287.299,194.361 287.299,190.841 C287.299,187.251 284.369,184.401 280.819,184.401 C277.319,184.401 274.379,187.211 274.379,190.831 L274.389,190.841 Z M288.539,190.861 C288.539,195.101 285.069,198.561 280.839,198.561 C276.639,198.561 273.139,195.141 273.139,190.861 C273.139,186.501 276.719,183.161 280.839,183.161 C284.989,183.161 288.529,186.511 288.529,190.861 L288.539,190.861 Z"
                      id="Shape" fill-rule="nonzero"></path>
                <path d="M94.936,90.55 C94.936,88.71 93.966,87.02 92.378,86.105 L50.022,61.735 C49.307,61.315 48.506,61.095 47.694,61.065 L47.256,61.065 C46.444,61.095 45.643,61.315 44.916,61.735 L2.562,86.105 C0.984,87.025 0,88.715 0,90.555 L0.093,156.195 C0.093,157.105 0.563,157.955 1.363,158.405 C2.143,158.885 3.123,158.885 3.903,158.405 L29.083,143.985 C30.673,143.039 31.643,141.367 31.643,139.545 L31.643,108.88 C31.643,107.05 32.613,105.36 34.198,104.45 L44.918,98.276 C45.714,97.816 46.588,97.588 47.478,97.588 C48.354,97.588 49.248,97.814 50.022,98.275 L60.737,104.447 C62.323,105.357 63.297,107.047 63.297,108.877 L63.297,139.54 C63.297,141.36 64.28,143.04 65.862,143.98 L91.026,158.39 C91.816,158.86 92.799,158.86 93.586,158.39 C94.362,157.94 94.854,157.09 94.854,156.18 L94.936,90.55 Z M294.804,124.726 C294.804,125.183 294.561,125.606 294.164,125.832 L279.616,134.218 C279.221,134.445 278.733,134.445 278.339,134.218 L263.789,125.832 C263.389,125.605 263.149,125.182 263.149,124.726 L263.149,107.93 C263.149,107.472 263.389,107.05 263.779,106.82 L278.319,98.42 C278.719,98.19 279.209,98.19 279.609,98.42 L294.159,106.82 C294.559,107.05 294.799,107.472 294.799,107.93 L294.804,124.726 Z M298.734,0.324 C297.94,-0.118 296.974,-0.106 296.19,0.351 C295.41,0.811 294.928,1.651 294.928,2.561 L294.928,67.561 C294.928,68.201 294.588,68.791 294.034,69.111 C293.484,69.431 292.799,69.431 292.244,69.111 L281.634,63 C280.054,62.086 278.108,62.086 276.522,63 L234.152,87.453 C232.569,88.363 231.592,90.053 231.592,91.873 L231.592,140.793 C231.592,142.623 232.569,144.303 234.152,145.223 L276.522,169.693 C278.104,170.603 280.052,170.603 281.639,169.693 L324.009,145.213 C325.589,144.293 326.569,142.613 326.569,140.783 L326.569,18.863 C326.569,17.007 325.559,15.3 323.939,14.393 L298.734,0.324 Z M439.827,107.488 C441.401,106.574 442.37,104.886 442.37,103.066 L442.37,91.21 C442.37,89.386 441.4,87.703 439.823,86.785 L397.723,62.345 C396.133,61.425 394.183,61.425 392.593,62.345 L350.233,86.795 C348.643,87.715 347.673,89.395 347.673,91.225 L347.673,140.125 C347.673,141.965 348.663,143.665 350.253,144.575 L392.343,168.565 C393.893,169.455 395.793,169.465 397.363,168.595 L422.823,154.445 C423.623,153.995 424.133,153.145 424.133,152.225 C424.133,151.305 423.643,150.445 422.843,149.995 L380.223,125.535 C379.423,125.085 378.933,124.235 378.933,123.325 L378.933,107.985 C378.933,107.069 379.413,106.225 380.213,105.769 L393.473,98.119 C394.263,97.659 395.233,97.659 396.023,98.119 L409.293,105.769 C410.083,106.219 410.573,107.069 410.573,107.979 L410.573,120.039 C410.573,120.949 411.063,121.799 411.853,122.259 C412.643,122.709 413.623,122.709 414.413,122.249 L439.827,107.488 Z"
                      id="Shape"></path>
                <path d="M394.538,105.2 C394.838,105.023 395.214,105.023 395.518,105.2 L403.648,109.89 C403.952,110.066 404.138,110.39 404.138,110.74 L404.138,120.13 C404.138,120.48 403.952,120.804 403.648,120.98 L395.518,125.67 C395.214,125.847 394.838,125.847 394.538,125.67 L386.413,120.98 C386.103,120.804 385.913,120.48 385.913,120.13 L385.913,110.74 C385.913,110.39 386.093,110.066 386.403,109.89 L394.538,105.2 Z"
                      id="Shape"></path>
                <path d="M159.237582,66.6466785 L119.492939,89.5062411 C118.006237,90.3619526 117.102924,92.0135975 117.102924,93.7272345 L117.102924,139.604661 C117.102924,141.320512 118.007344,142.888025 119.492939,143.747057 L159.237582,166.685217 C160.714951,167.543482 162.539134,167.543482 164.016503,166.685217 L203.761146,143.747057 C205.242202,142.894089 206.153565,141.313774 206.150054,139.604661 L206.150054,93.7272345 C206.150054,92.0113835 205.246741,90.3619526 203.761146,89.5062411 L164.016503,66.6466785 C163.290002,66.2270874 162.465451,66.0071051 161.626489,66.0090461 C160.798453,66.0090461 159.979272,66.2193762 159.237582,66.6466785 Z"
                      id="Shape" fill-rule="nonzero"></path>
            </g>
        </g>
    </g>
</svg>