<?xml version="1.0" encoding="UTF-8"?>
<svg width="512px" height="769px" viewBox="0 0 512 769" version="1.1"
     xmlns="http://www.w3.org/2000/svg">
    <!-- Generator: Sketch 50.2 (55047) - http://www.bohemiancoding.com/sketch -->
    <title>react-logo</title>
    <desc>Created with Sketch.</desc>
    <defs></defs>
    <g id="Page-1" stroke="none" stroke-width="1" fill="none" fill-rule="evenodd">
        <g id="react-logo">
            <rect id="Rectangle" fill="#00D8FF" x="0" y="0" width="512" height="769"></rect>
            <g id="reactjs-ar21" transform="translate(43.000000, 315.000000)">
                <g id="Group" transform="translate(0.678003, 0.399349)">
                    <circle id="Oval" fill="#FFFFFF" fill-rule="nonzero" cx="77.8490277" cy="68.6349475"
                            r="14.4899145"></circle>
                    <g id="Shape" stroke="#FFFFFF" stroke-width="1.66272">
                        <path d="M77.8493165,39.1739217 C97.3039916,39.1739217 115.376887,41.9654983 129.003767,46.6567334 C145.422223,52.3092067 155.516957,60.8768773 155.516957,68.6349475 C155.516957,76.7193996 144.818561,85.8214124 127.187292,91.6630716 C113.857622,96.0793372 96.3167584,98.3848069 77.8493165,98.3848069 C58.9151196,98.3848069 40.9854859,96.2208656 27.5056224,91.6145476 C10.4511545,85.7853082 0.179076824,76.5654512 0.179076824,68.6349475 C0.179076824,60.9398431 9.8174536,52.4383153 26.005132,46.794507 C39.6828464,42.0258645 58.2019895,39.1739217 77.846717,39.1739217 L77.8493165,39.1739217 Z"></path>
                        <path d="M52.2026271,53.9893516 C61.9218773,37.1364895 73.3683523,22.8750424 84.2400485,13.4140094 C97.3386516,2.0149031 109.803843,-2.44930881 116.524134,1.42597142 C123.527771,5.46473145 126.067773,19.2799307 122.320157,37.4712477 C119.489588,51.2249254 112.721062,67.5711734 103.49514,83.5690881 C94.0358396,99.9713698 83.2045801,114.422292 72.4810555,123.795519 C58.9116536,135.657337 45.7928321,139.949982 38.9229253,135.988051 C32.2566461,132.146565 29.7074009,119.547644 32.9053663,102.704891 C35.6074045,88.47406 42.3883506,71.0068489 52.1994499,53.9890628 L52.2026271,53.9893516 Z"></path>
                        <path d="M52.2268891,83.6121243 C42.4801997,66.7783252 35.8442481,49.7356994 33.074334,35.5920964 C29.7400391,18.5509148 32.0974988,5.52163167 38.8117243,1.63508693 C45.8084291,-2.41551528 59.0459612,2.2832295 72.9345242,14.6152683 C83.4353581,23.9388165 94.2180935,37.9637089 103.470877,53.9466043 C112.957328,70.3330001 120.067255,86.9342882 122.833126,100.905746 C126.332922,118.586117 123.500331,132.095152 116.636779,136.068347 C109.977143,139.923698 97.7903873,135.841902 84.7957643,124.659421 C73.8163332,115.211674 62.06976,100.613158 52.2268891,83.6118354 L52.2268891,83.6121243 Z"></path>
                    </g>
                </g>
                <path d="M239.368453,106.054862 L221.608189,79.2226888 C230.584209,78.4305644 238.672217,71.9268058 238.672217,60.0449391 C238.672217,47.9546187 230.092258,40.2168136 218.056136,40.2168136 L191.624194,40.2168136 L191.624194,106.004833 L199.812259,106.004833 L199.812259,79.8647265 L212.932342,79.8647265 L229.700365,106.004833 L239.368453,106.054862 Z M217.076403,72.7147611 L199.816428,72.7147611 L199.816428,47.5627255 L217.076403,47.5627255 C224.872575,47.5627255 230.196485,52.690689 230.196485,60.090799 C230.196485,67.4909089 224.868406,72.7230993 217.076403,72.7230993 L217.076403,72.7147611 Z M269.848567,107.234711 C277.64474,107.234711 284.052609,104.670729 288.78868,99.9388275 L285.236627,95.1026993 C281.484459,98.9507565 275.964602,101.118676 270.540634,101.118676 C260.284707,101.118676 253.968557,93.6226774 253.376548,84.6508258 L291.940501,84.6508258 L291.940501,82.7747416 C291.940501,68.4748108 283.456432,57.2266437 269.052274,57.2266437 C255.440241,57.2266437 245.580376,68.374753 245.580376,82.1827328 C245.580376,97.0788414 255.740414,107.197189 269.844398,107.197189 L269.848567,107.234711 Z M284.648787,79.2185197 L253.380717,79.2185197 C253.776779,71.9226367 258.800516,63.3343401 268.964723,63.3343401 C279.816828,63.3343401 284.548729,72.1144142 284.648787,79.2185197 Z M341.073062,106.050693 L341.073062,73.3026009 C341.073062,61.7625984 332.693219,57.2224747 322.62907,57.2224747 C314.832898,57.2224747 308.721032,59.7864564 303.593069,65.1145356 L307.045064,70.2424991 C311.285014,65.7065444 315.925196,63.6345136 321.645168,63.6345136 C328.549158,63.6345136 333.68129,67.2824551 333.68129,73.694494 L333.68129,82.2744524 C329.833233,77.8343865 324.409265,75.7623557 317.897168,75.7623557 C309.809161,75.7623557 301.220864,80.7944305 301.220864,91.4464197 C301.220864,101.802404 309.800823,107.230541 317.897168,107.230541 C324.309207,107.230541 329.737344,104.962564 333.68129,100.622556 L333.68129,106.042355 L341.073062,106.050693 Z M320.561208,101.906631 C313.657218,101.906631 308.82109,97.5707923 308.82109,91.5506466 C308.82109,85.4346121 313.657218,81.0946039 320.561208,81.0946039 C325.789229,81.0946039 330.817135,83.0665769 333.68129,87.0146919 L333.68129,95.9907125 C330.821304,99.9346584 325.789229,101.9108 320.561208,101.9108 L320.561208,101.906631 Z M376.843734,107.234711 C385.523751,107.234711 390.651714,103.682658 394.303825,98.9507565 L389.371808,94.4148018 C386.215817,98.6547521 382.171813,100.626725 377.281487,100.626725 C367.121449,100.626725 360.813637,92.7346642 360.813637,82.1827328 C360.813637,71.6308014 367.125618,63.8387983 377.281487,63.8387983 C382.213504,63.8387983 386.257508,65.7148825 389.371808,70.0507216 L394.303825,65.5147669 C390.655883,60.7786965 385.523751,57.2308128 376.843734,57.2308128 C362.639692,57.2308128 353.071663,68.0829177 353.071663,82.1869018 C353.071663,96.3909438 362.639692,107.201358 376.843734,107.201358 L376.843734,107.234711 Z M416.700101,107.234711 C421.03594,107.234711 423.704149,105.950635 425.580233,104.178778 L423.412313,98.6547521 C422.424242,99.7387119 420.49396,100.626725 418.380239,100.626725 C415.128359,100.626725 413.54411,98.0627433 413.54411,94.5106905 L413.54411,64.918589 L423.216367,64.918589 L423.216367,58.4106613 L413.54411,58.4106613 L413.54411,45.3906369 L406.144001,45.3906369 L406.144001,58.4106613 L398.25194,58.4106613 L398.25194,64.9227581 L406.144001,64.9227581 L406.144001,96.0949394 C406.144001,103.199045 409.696053,107.243049 416.700101,107.243049 L416.700101,107.234711 Z"
                      id="Shape" fill="#FFFFFF"></path>
            </g>
        </g>
    </g>
</svg>