<?xml version="1.0" encoding="UTF-8" standalone="no"?>
<svg width="797px" height="357px" viewBox="0 0 797 357" version="1.1" xmlns="http://www.w3.org/2000/svg" xmlns:xlink="http://www.w3.org/1999/xlink" xmlns:sketch="http://www.bohemiancoding.com/sketch/ns">
    <!-- Generator: Sketch 3.3.3 (12081) - http://www.bohemiancoding.com/sketch -->
    <title>logo</title>
    <desc>Created with Sketch.</desc>
    <defs></defs>
    <g id="Page-1" stroke="none" stroke-width="1" fill="none" fill-rule="evenodd" sketch:type="MSPage">
        <g id="logo" sketch:type="MSLayerGroup" fill="#000000">
            <g id="Page-1" sketch:type="MSShapeGroup">
                <path d="M0,24.9970956 C0,11.1915809 11.1904484,0 25.0026541,0 L771.997346,0 C785.80593,0 797,11.1994322 797,24.9970956 L797,332.002904 C797,345.808419 785.809552,357 771.997346,357 L25.0026541,357 C11.1940695,357 0,345.800568 0,332.002904 L0,24.9970956 L0,24.9970956 Z M16,35.0029716 C16,21.1942117 27.183479,10 40.9909187,10 L756.009081,10 C769.811185,10 781,21.188561 781,35.0029716 L781,321.997028 C781,335.805788 769.816521,347 756.009081,347 L40.9909187,347 C27.1888154,347 16,335.811439 16,321.997028 L16,35.0029716 L16,35.0029716 Z" id="Rectangle-outer"></path>
                <path d="M41.287,268.625 L46.189,268.625 L46.189,273.14 L46.189,277.139 C46.189,278.343006 46.2319996,279.675993 46.318,281.138 C48.0380086,277.009979 50.7684813,273.742012 54.5095,271.334 C58.2505187,268.925988 62.5719755,267.679 67.474,267.593 C71.8600219,267.593 75.4289862,268.775488 78.181,271.1405 C80.9330138,273.505512 82.5239979,276.622981 82.954,280.493 C84.760009,276.622981 87.5119815,273.527012 91.21,271.205 C94.9080185,268.882988 99.1219763,267.679 103.852,267.593 C108.582024,267.593 112.322986,268.925987 115.075,271.592 C117.827014,274.258013 119.288999,277.740978 119.461,282.041 L119.461,317 L114.172,317 L114.172,283.46 C113.999999,280.707986 112.989509,278.30001 111.1405,276.236 C109.291491,274.17199 106.561018,273.054001 102.949,272.882 C100.368987,272.882 97.875012,273.311996 95.467,274.172 C93.058988,275.032004 90.952009,276.235992 89.146,277.784 C87.339991,279.332008 85.8995054,281.159489 84.8245,283.2665 C83.7494946,285.373511 83.1690004,287.673988 83.083,290.168 L83.083,317 L77.665,317 L77.665,283.46 C77.4929991,280.707986 76.4825092,278.30001 74.6335,276.236 C72.7844908,274.17199 70.0540181,273.054001 66.442,272.882 C63.8619871,272.882 61.368012,273.333495 58.96,274.2365 C56.551988,275.139505 54.445009,276.364992 52.639,277.913 C50.832991,279.461008 49.3925054,281.309989 48.3175,283.46 C47.2424946,285.610011 46.705,287.974987 46.705,290.555 L46.705,317 L41.287,317 L41.287,268.625 Z M142.423,292.748 C142.423,295.500014 142.938995,298.079988 143.971,300.488 C145.003005,302.896012 146.400491,305.002991 148.1635,306.809 C149.926509,308.615009 152.033488,310.033995 154.4845,311.066 C156.935512,312.098005 159.579986,312.614 162.418,312.614 C165.256014,312.614 167.878988,312.098005 170.287,311.066 C172.695012,310.033995 174.801991,308.615009 176.608,306.809 C178.414009,305.002991 179.832995,302.896012 180.865,300.488 C181.897005,298.079988 182.413,295.500014 182.413,292.748 C182.413,289.995986 181.897005,287.394512 180.865,284.9435 C179.832995,282.492488 178.414009,280.364009 176.608,278.558 C174.801991,276.751991 172.695012,275.333005 170.287,274.301 C167.878988,273.268995 165.256014,272.753 162.418,272.753 C159.579986,272.753 156.935512,273.268995 154.4845,274.301 C152.033488,275.333005 149.926509,276.751991 148.1635,278.558 C146.400491,280.364009 145.003005,282.492488 143.971,284.9435 C142.938995,287.394512 142.423,289.995986 142.423,292.748 L142.423,292.748 Z M137.005,292.748 C137.005,289.307983 137.671493,286.061515 139.0045,283.0085 C140.337507,279.955485 142.143489,277.289511 144.4225,275.0105 C146.701511,272.731489 149.388985,270.925507 152.485,269.5925 C155.581015,268.259493 158.891982,267.593 162.418,267.593 C164.912012,267.593 167.276989,267.958496 169.513,268.6895 C171.749011,269.420504 173.769991,270.366494 175.576,271.5275 C177.382009,272.688506 178.908494,274.021492 180.1555,275.5265 C181.402506,277.031508 182.326997,278.514993 182.929,279.977 C182.929,278.084991 182.993499,276.193009 183.1225,274.301 C183.251501,272.408991 183.359,270.517009 183.445,268.625 L187.831,268.625 L187.831,317 L182.929,317 L182.929,311.195 C182.929,310.248995 182.9505,309.346004 182.9935,308.486 C183.0365,307.625996 183.058,306.723005 183.058,305.777 C182.541997,307.239007 181.660506,308.700993 180.4135,310.163 C179.166494,311.625007 177.661509,312.936494 175.8985,314.0975 C174.135491,315.258506 172.114511,316.182997 169.8355,316.871 C167.556489,317.559003 165.084013,317.903 162.418,317.903 C158.891982,317.903 155.581015,317.236507 152.485,315.9035 C149.388985,314.570493 146.701511,312.786011 144.4225,310.55 C142.143489,308.313989 140.337507,305.669515 139.0045,302.6165 C137.671493,299.563485 137.005,296.274018 137.005,292.748 L137.005,292.748 Z M245.623,317.516 L240.205,317.516 L240.205,310.292 L240.592,304.487 C238.871991,308.615021 236.098519,311.904488 232.2715,314.3555 C228.444481,316.806512 224.166024,318.032 219.436,318.032 C214.705976,318.032 210.965014,316.699013 208.213,314.033 C205.460986,311.366987 203.999001,307.884022 203.827,303.584 L203.827,268.625 L209.245,268.625 L209.245,302.165 C209.417001,304.917014 210.427491,307.32499 212.2765,309.389 C214.125509,311.45301 216.855982,312.570999 220.468,312.743 C223.048013,312.743 225.541988,312.291505 227.95,311.3885 C230.358012,310.485495 232.464991,309.260008 234.271,307.712 C236.077009,306.163992 237.517495,304.315011 238.5925,302.165 C239.667505,300.014989 240.205,297.650013 240.205,295.07 L240.205,268.625 L245.623,268.625 L245.623,317.516 Z M306.382,279.461 C305.435995,277.654991 304.554504,275.849009 303.7375,274.043 C302.920496,272.236991 302.039005,270.431009 301.093,268.625 L306.511,268.625 C309.865017,275.505034 313.304982,282.406465 316.831,289.3295 C320.357018,296.252535 323.667985,303.196965 326.764,310.163 C329.860015,303.196965 333.170982,296.252535 336.697,289.3295 C340.223018,282.406465 343.662983,275.505034 347.017,268.625 L352.435,268.625 C348.134978,277.225043 343.856521,285.781957 339.5995,294.296 C335.342479,302.810043 331.064022,311.366957 326.764,319.967 C323.839985,314.03297 320.916015,308.185029 317.992,302.423 C315.067985,296.660971 312.144015,290.81303 309.22,284.879 C306.295985,290.81303 303.372015,296.660971 300.448,302.423 C297.523985,308.185029 294.600015,314.03297 291.676,319.967 C287.375978,311.366957 283.097521,302.810043 278.8405,294.296 C274.583479,285.781957 270.305021,277.225043 266.005,268.625 L271.423,268.625 C274.777017,275.505034 278.216982,282.406465 281.743,289.3295 C285.269018,296.252535 288.579985,303.196965 291.676,310.163 C293.912011,305.002974 296.298487,299.886025 298.8355,294.812 C301.372513,289.737975 303.887988,284.621026 306.382,279.461 L306.382,279.461 Z M366.496,251.468 C366.496,250.263994 366.925996,249.253504 367.786,248.4365 C368.646004,247.619496 369.634994,247.211 370.753,247.211 C371.871006,247.211 372.859996,247.619496 373.72,248.4365 C374.580004,249.253504 375.01,250.263994 375.01,251.468 C375.01,252.672006 374.580004,253.682496 373.72,254.4995 C372.859996,255.316504 371.871006,255.725 370.753,255.725 C369.634994,255.725 368.646004,255.316504 367.786,254.4995 C366.925996,253.682496 366.496,252.672006 366.496,251.468 L366.496,251.468 Z M373.333,317 L368.044,317 L368.044,268.625 L373.333,268.625 L373.333,317 Z" id="mauwi-copy"></path>
                <path d="M41.287,175.625 L46.189,175.625 L46.189,180.14 L46.189,184.139 C46.189,185.343006 46.2319996,186.675993 46.318,188.138 C48.0380086,184.009979 50.7684813,180.742012 54.5095,178.334 C58.2505187,175.925988 62.5719755,174.679 67.474,174.593 C71.8600219,174.593 75.4289862,175.775488 78.181,178.1405 C80.9330138,180.505512 82.5239979,183.622981 82.954,187.493 C84.760009,183.622981 87.5119815,180.527012 91.21,178.205 C94.9080185,175.882988 99.1219763,174.679 103.852,174.593 C108.582024,174.593 112.322986,175.925987 115.075,178.592 C117.827014,181.258013 119.288999,184.740979 119.461,189.041 L119.461,224 L114.172,224 L114.172,190.46 C113.999999,187.707986 112.989509,185.30001 111.1405,183.236 C109.291491,181.17199 106.561018,180.054001 102.949,179.882 C100.368987,179.882 97.875012,180.311996 95.467,181.172 C93.058988,182.032004 90.952009,183.235992 89.146,184.784 C87.339991,186.332008 85.8995054,188.159489 84.8245,190.2665 C83.7494946,192.373511 83.1690004,194.673988 83.083,197.168 L83.083,224 L77.665,224 L77.665,190.46 C77.4929991,187.707986 76.4825092,185.30001 74.6335,183.236 C72.7844908,181.17199 70.0540181,180.054001 66.442,179.882 C63.8619871,179.882 61.368012,180.333495 58.96,181.2365 C56.551988,182.139505 54.445009,183.364992 52.639,184.913 C50.832991,186.461008 49.3925054,188.309989 48.3175,190.46 C47.2424946,192.610011 46.705,194.974987 46.705,197.555 L46.705,224 L41.287,224 L41.287,175.625 Z M142.423,199.748 C142.423,202.500014 142.938995,205.079988 143.971,207.488 C145.003005,209.896012 146.400491,212.002991 148.1635,213.809 C149.926509,215.615009 152.033488,217.033995 154.4845,218.066 C156.935512,219.098005 159.579986,219.614 162.418,219.614 C165.256014,219.614 167.878988,219.098005 170.287,218.066 C172.695012,217.033995 174.801991,215.615009 176.608,213.809 C178.414009,212.002991 179.832995,209.896012 180.865,207.488 C181.897005,205.079988 182.413,202.500014 182.413,199.748 C182.413,196.995986 181.897005,194.394512 180.865,191.9435 C179.832995,189.492488 178.414009,187.364009 176.608,185.558 C174.801991,183.751991 172.695012,182.333005 170.287,181.301 C167.878988,180.268995 165.256014,179.753 162.418,179.753 C159.579986,179.753 156.935512,180.268995 154.4845,181.301 C152.033488,182.333005 149.926509,183.751991 148.1635,185.558 C146.400491,187.364009 145.003005,189.492488 143.971,191.9435 C142.938995,194.394512 142.423,196.995986 142.423,199.748 L142.423,199.748 Z M137.005,199.748 C137.005,196.307983 137.671493,193.061515 139.0045,190.0085 C140.337507,186.955485 142.143489,184.289511 144.4225,182.0105 C146.701511,179.731489 149.388985,177.925507 152.485,176.5925 C155.581015,175.259493 158.891982,174.593 162.418,174.593 C164.912012,174.593 167.276989,174.958496 169.513,175.6895 C171.749011,176.420504 173.769991,177.366494 175.576,178.5275 C177.382009,179.688506 178.908494,181.021492 180.1555,182.5265 C181.402506,184.031508 182.326997,185.514993 182.929,186.977 C182.929,185.084991 182.993499,183.193009 183.1225,181.301 C183.251501,179.408991 183.359,177.517009 183.445,175.625 L187.831,175.625 L187.831,224 L182.929,224 L182.929,218.195 C182.929,217.248995 182.9505,216.346004 182.9935,215.486 C183.0365,214.625996 183.058,213.723005 183.058,212.777 C182.541997,214.239007 181.660506,215.700993 180.4135,217.163 C179.166494,218.625007 177.661509,219.936494 175.8985,221.0975 C174.135491,222.258506 172.114511,223.182997 169.8355,223.871 C167.556489,224.559003 165.084013,224.903 162.418,224.903 C158.891982,224.903 155.581015,224.236507 152.485,222.9035 C149.388985,221.570493 146.701511,219.786011 144.4225,217.55 C142.143489,215.313989 140.337507,212.669515 139.0045,209.6165 C137.671493,206.563485 137.005,203.274018 137.005,199.748 L137.005,199.748 Z M203.698,158.468 C203.698,157.263994 204.127996,156.253504 204.988,155.4365 C205.848004,154.619496 206.836994,154.211 207.955,154.211 C209.073006,154.211 210.061996,154.619496 210.922,155.4365 C211.782004,156.253504 212.212,157.263994 212.212,158.468 C212.212,159.672006 211.782004,160.682496 210.922,161.4995 C210.061996,162.316504 209.073006,162.725 207.955,162.725 C206.836994,162.725 205.848004,162.316504 204.988,161.4995 C204.127996,160.682496 203.698,159.672006 203.698,158.468 L203.698,158.468 Z M210.535,224 L205.246,224 L205.246,175.625 L210.535,175.625 L210.535,224 Z M232.981,175.625 L237.883,175.625 L237.883,180.14 L237.883,184.139 C237.883,185.343006 237.926,186.675993 238.012,188.138 C239.732009,184.09598 242.483981,180.828012 246.268,178.334 C250.052019,175.839988 254.351976,174.593 259.168,174.593 C263.898024,174.593 267.638986,175.925987 270.391,178.592 C273.143014,181.258013 274.604999,184.740979 274.777,189.041 L274.777,224 L269.359,224 L269.359,190.46 C269.186999,187.707986 268.176509,185.30001 266.3275,183.236 C264.478491,181.17199 261.748018,180.054001 258.136,179.882 C255.555987,179.882 253.062012,180.333495 250.654,181.2365 C248.245988,182.139505 246.139009,183.364992 244.333,184.913 C242.526991,186.461008 241.086505,188.309989 240.0115,190.46 C238.936495,192.610011 238.399,194.974987 238.399,197.555 L238.399,224 L232.981,224 L232.981,175.625 Z M299.545,144.149 L304.963,144.149 L304.963,175.754 L319.798,175.754 L319.798,181.043 L304.963,181.043 L304.963,224 L299.545,224 L299.545,181.043 L288.322,181.043 L288.322,175.754 L299.545,175.754 L299.545,144.149 Z M327.28,199.748 C327.28,202.500014 327.795995,205.079988 328.828,207.488 C329.860005,209.896012 331.257491,212.002991 333.0205,213.809 C334.783509,215.615009 336.890488,217.033995 339.3415,218.066 C341.792512,219.098005 344.436986,219.614 347.275,219.614 C350.113014,219.614 352.735988,219.098005 355.144,218.066 C357.552012,217.033995 359.658991,215.615009 361.465,213.809 C363.271009,212.002991 364.689995,209.896012 365.722,207.488 C366.754005,205.079988 367.27,202.500014 367.27,199.748 C367.27,196.995986 366.754005,194.394512 365.722,191.9435 C364.689995,189.492488 363.271009,187.364009 361.465,185.558 C359.658991,183.751991 357.552012,182.333005 355.144,181.301 C352.735988,180.268995 350.113014,179.753 347.275,179.753 C344.436986,179.753 341.792512,180.268995 339.3415,181.301 C336.890488,182.333005 334.783509,183.751991 333.0205,185.558 C331.257491,187.364009 329.860005,189.492488 328.828,191.9435 C327.795995,194.394512 327.28,196.995986 327.28,199.748 L327.28,199.748 Z M321.862,199.748 C321.862,196.307983 322.528493,193.061515 323.8615,190.0085 C325.194507,186.955485 327.000489,184.289511 329.2795,182.0105 C331.558511,179.731489 334.245985,177.925507 337.342,176.5925 C340.438015,175.259493 343.748982,174.593 347.275,174.593 C349.769012,174.593 352.133989,174.958496 354.37,175.6895 C356.606011,176.420504 358.626991,177.366494 360.433,178.5275 C362.239009,179.688506 363.765494,181.021492 365.0125,182.5265 C366.259506,184.031508 367.183997,185.514993 367.786,186.977 C367.786,185.084991 367.850499,183.193009 367.9795,181.301 C368.108501,179.408991 368.216,177.517009 368.302,175.625 L372.688,175.625 L372.688,224 L367.786,224 L367.786,218.195 C367.786,217.248995 367.8075,216.346004 367.8505,215.486 C367.8935,214.625996 367.915,213.723005 367.915,212.777 C367.398997,214.239007 366.517506,215.700993 365.2705,217.163 C364.023494,218.625007 362.518509,219.936494 360.7555,221.0975 C358.992491,222.258506 356.971511,223.182997 354.6925,223.871 C352.413489,224.559003 349.941013,224.903 347.275,224.903 C343.748982,224.903 340.438015,224.236507 337.342,222.9035 C334.245985,221.570493 331.558511,219.786011 329.2795,217.55 C327.000489,215.313989 325.194507,212.669515 323.8615,209.6165 C322.528493,206.563485 321.862,203.274018 321.862,199.748 L321.862,199.748 Z M388.555,158.468 C388.555,157.263994 388.984996,156.253504 389.845,155.4365 C390.705004,154.619496 391.693994,154.211 392.812,154.211 C393.930006,154.211 394.918996,154.619496 395.779,155.4365 C396.639004,156.253504 397.069,157.263994 397.069,158.468 C397.069,159.672006 396.639004,160.682496 395.779,161.4995 C394.918996,162.316504 393.930006,162.725 392.812,162.725 C391.693994,162.725 390.705004,162.316504 389.845,161.4995 C388.984996,160.682496 388.555,159.672006 388.555,158.468 L388.555,158.468 Z M395.392,224 L390.103,224 L390.103,175.625 L395.392,175.625 L395.392,224 Z M417.838,175.625 L422.74,175.625 L422.74,180.14 L422.74,184.139 C422.74,185.343006 422.783,186.675993 422.869,188.138 C424.589009,184.09598 427.340981,180.828012 431.125,178.334 C434.909019,175.839988 439.208976,174.593 444.025,174.593 C448.755024,174.593 452.495986,175.925987 455.248,178.592 C458.000014,181.258013 459.461999,184.740979 459.634,189.041 L459.634,224 L454.216,224 L454.216,190.46 C454.043999,187.707986 453.033509,185.30001 451.1845,183.236 C449.335491,181.17199 446.605018,180.054001 442.993,179.882 C440.412987,179.882 437.919012,180.333495 435.511,181.2365 C433.102988,182.139505 430.996009,183.364992 429.19,184.913 C427.383991,186.461008 425.943505,188.309989 424.8685,190.46 C423.793495,192.610011 423.256,194.974987 423.256,197.555 L423.256,224 L417.838,224 L417.838,175.625 Z M498.334,179.753 C495.753987,179.753 493.303012,180.204495 490.981,181.1075 C488.658988,182.010505 486.638009,183.278992 484.918,184.913 C483.197991,186.547008 481.800505,188.438989 480.7255,190.589 C479.650495,192.739011 478.984001,195.060988 478.726,197.555 C478.64,198.587005 478.6185,199.597495 478.6615,200.5865 C478.7045,201.575505 478.811999,202.542995 478.984,203.489 C484.746029,201.166988 490.507971,198.866511 496.27,196.5875 C502.032029,194.308489 507.836971,192.008012 513.685,189.686 C512.222993,186.761985 510.116014,184.375509 507.364,182.5265 C504.611986,180.677491 501.602016,179.753 498.334,179.753 L498.334,179.753 Z M520.522,192.653 C513.813966,195.319013 507.149033,197.963487 500.527,200.5865 C493.904967,203.209513 487.240034,205.853987 480.532,208.52 C481.994007,211.788016 484.315984,214.45399 487.498,216.518 C490.680016,218.58201 494.29198,219.614 498.334,219.614 C501.000013,219.614 503.493988,219.141005 505.816,218.195 C508.138012,217.248995 510.158991,215.916009 511.879,214.196 C512.481003,214.884003 513.039997,215.550497 513.556,216.1955 C514.072003,216.840503 514.630997,217.506997 515.233,218.195 C512.996989,220.25901 510.460014,221.892994 507.622,223.097 C504.783986,224.301006 501.688017,224.903 498.334,224.903 C494.807982,224.903 491.518515,224.236507 488.4655,222.9035 C485.412485,221.570493 482.746511,219.786011 480.4675,217.55 C478.188489,215.313989 476.382507,212.669515 475.0495,209.6165 C473.716493,206.563485 473.05,203.274018 473.05,199.748 C473.05,196.307983 473.716493,193.040015 475.0495,189.944 C476.382507,186.847985 478.188489,184.182011 480.4675,181.946 C482.746511,179.709989 485.412485,177.925507 488.4655,176.5925 C491.518515,175.259493 494.807982,174.593 498.334,174.593 C500.914013,174.593 503.364988,175.044495 505.687,175.9475 C508.009012,176.850505 510.13749,178.097492 512.0725,179.6885 C514.00751,181.279508 515.705993,183.171489 517.168,185.3645 C518.630007,187.557511 519.747996,189.986987 520.522,192.653 L520.522,192.653 Z M538.84,199.748 C538.84,202.500014 539.355995,205.079988 540.388,207.488 C541.420005,209.896012 542.817491,212.002991 544.5805,213.809 C546.343509,215.615009 548.428988,217.033995 550.837,218.066 C553.245012,219.098005 555.867986,219.614 558.706,219.614 C561.544014,219.614 564.188488,219.098005 566.6395,218.066 C569.090512,217.033995 571.218991,215.615009 573.025,213.809 C574.831009,212.002991 576.249995,209.896012 577.282,207.488 C578.314005,205.079988 578.83,202.500014 578.83,199.748 C578.83,196.995986 578.314005,194.394512 577.282,191.9435 C576.249995,189.492488 574.831009,187.364009 573.025,185.558 C571.218991,183.751991 569.090512,182.333005 566.6395,181.301 C564.188488,180.268995 561.544014,179.753 558.706,179.753 C555.867986,179.753 553.245012,180.268995 550.837,181.301 C548.428988,182.333005 546.343509,183.751991 544.5805,185.558 C542.817491,187.364009 541.420005,189.492488 540.388,191.9435 C539.355995,194.394512 538.84,196.995986 538.84,199.748 L538.84,199.748 Z M533.422,199.748 C533.422,196.307983 534.066994,193.061515 535.357,190.0085 C536.647006,186.955485 538.431489,184.289511 540.7105,182.0105 C542.989511,179.731489 545.676985,177.925507 548.773,176.5925 C551.869015,175.259493 555.179982,174.593 558.706,174.593 C561.286013,174.593 563.693989,174.958496 565.93,175.6895 C568.166011,176.420504 570.186991,177.366494 571.993,178.5275 C573.799009,179.688506 575.346994,180.999993 576.637,182.462 C577.927006,183.924007 578.829997,185.385993 579.346,186.848 C579.26,185.901995 579.174,184.934505 579.088,183.9455 C579.002,182.956495 578.916,181.989005 578.83,181.043 L578.83,127.25 L584.119,127.25 L584.119,224 L579.346,224 L579.346,218.195 L579.346,212.777 C578.829997,214.239007 577.948506,215.700993 576.7015,217.163 C575.454494,218.625007 573.949509,219.936494 572.1865,221.0975 C570.423491,222.258506 568.402511,223.182997 566.1235,223.871 C563.844489,224.559003 561.372013,224.903 558.706,224.903 C555.179982,224.903 551.869015,224.236507 548.773,222.9035 C545.676985,221.570493 542.989511,219.786011 540.7105,217.55 C538.431489,215.313989 536.647006,212.669515 535.357,209.6165 C534.066994,206.563485 533.422,203.274018 533.422,199.748 L533.422,199.748 Z M688.867,199.748 C688.867,196.995986 688.351005,194.394512 687.319,191.9435 C686.286995,189.492488 684.889509,187.364009 683.1265,185.558 C681.363491,183.751991 679.256512,182.333005 676.8055,181.301 C674.354488,180.268995 671.710014,179.753 668.872,179.753 C666.033986,179.753 663.389512,180.268995 660.9385,181.301 C658.487488,182.333005 656.380509,183.751991 654.6175,185.558 C652.854491,187.364009 651.457005,189.492488 650.425,191.9435 C649.392995,194.394512 648.877,196.995986 648.877,199.748 C648.877,202.500014 649.392995,205.079988 650.425,207.488 C651.457005,209.896012 652.854491,212.002991 654.6175,213.809 C656.380509,215.615009 658.487488,217.033995 660.9385,218.066 C663.389512,219.098005 666.033986,219.614 668.872,219.614 C671.710014,219.614 674.354488,219.098005 676.8055,218.066 C679.256512,217.033995 681.363491,215.615009 683.1265,213.809 C684.889509,212.002991 686.286995,209.896012 687.319,207.488 C688.351005,205.079988 688.867,202.500014 688.867,199.748 L688.867,199.748 Z M694.285,199.748 C694.285,203.274018 693.618507,206.563485 692.2855,209.6165 C690.952493,212.669515 689.146511,215.313989 686.8675,217.55 C684.588489,219.786011 681.901015,221.570493 678.805,222.9035 C675.708985,224.236507 672.398018,224.903 668.872,224.903 C666.205987,224.903 663.733511,224.559003 661.4545,223.871 C659.175489,223.182997 657.154509,222.258506 655.3915,221.0975 C653.628491,219.936494 652.123506,218.625007 650.8765,217.163 C649.629494,215.700993 648.748003,214.239007 648.232,212.777 C648.232,213.723005 648.2535,214.625996 648.2965,215.486 C648.3395,216.346004 648.361,217.248995 648.361,218.195 L648.361,224 L643.459,224 L643.459,127.25 L648.877,127.25 L648.877,181.043 C648.704999,181.989005 648.5975,182.956495 648.5545,183.9455 C648.5115,184.934505 648.447,185.901995 648.361,186.848 C648.877003,185.385993 649.779994,183.924007 651.07,182.462 C652.360006,180.999993 653.907991,179.688506 655.714,178.5275 C657.520009,177.366494 659.540989,176.420504 661.777,175.6895 C664.013011,174.958496 666.377988,174.593 668.872,174.593 C672.398018,174.593 675.708985,175.259493 678.805,176.5925 C681.901015,177.925507 684.588489,179.731489 686.8675,182.0105 C689.146511,184.289511 690.952493,186.955485 692.2855,190.0085 C693.618507,193.061515 694.285,196.307983 694.285,199.748 L694.285,199.748 Z M720.085,256.25 L714.409,256.25 C717.075013,250.917973 719.740987,245.607526 722.407,240.3185 C725.073013,235.029474 727.738987,229.676027 730.405,224.258 C726.276979,216.17396 722.21352,208.09004 718.2145,200.006 C714.21548,191.92196 710.152021,183.795041 706.024,175.625 L711.7,175.625 C715.312018,182.849036 719.009981,190.072964 722.794,197.297 C726.578019,204.521036 730.060984,211.787963 733.243,219.098 C736.511016,211.787963 740.015481,204.521036 743.7565,197.297 C747.497519,190.072964 751.173982,182.849036 754.786,175.625 L760.462,175.625 C753.753966,189.127068 747.046034,202.564433 740.338,215.9375 C733.629966,229.310567 726.879034,242.747932 720.085,256.25 L720.085,256.25 Z" id="maintained-by-copy"></path>
                <path d="M41.287,82.625 L46.189,82.625 L46.189,87.14 L46.189,91.139 C46.189,92.343006 46.2319996,93.6759927 46.318,95.138 C48.0380086,91.0099794 50.7684813,87.742012 54.5095,85.334 C58.2505187,82.925988 62.5719755,81.6790004 67.474,81.593 C71.8600219,81.593 75.4289862,82.7754882 78.181,85.1405 C80.9330138,87.5055118 82.5239979,90.6229807 82.954,94.493 C84.760009,90.6229807 87.5119815,87.5270116 91.21,85.205 C94.9080185,82.8829884 99.1219763,81.6790004 103.852,81.593 C108.582024,81.593 112.322986,82.9259867 115.075,85.592 C117.827014,88.2580133 119.288999,91.7409785 119.461,96.041 L119.461,131 L114.172,131 L114.172,97.46 C113.999999,94.7079862 112.989509,92.3000103 111.1405,90.236 C109.291491,88.1719897 106.561018,87.0540009 102.949,86.882 C100.368987,86.882 97.875012,87.3119957 95.467,88.172 C93.058988,89.0320043 90.952009,90.2359923 89.146,91.784 C87.339991,93.3320077 85.8995054,95.1594895 84.8245,97.2665 C83.7494946,99.3735105 83.1690004,101.673988 83.083,104.168 L83.083,131 L77.665,131 L77.665,97.46 C77.4929991,94.7079862 76.4825092,92.3000103 74.6335,90.236 C72.7844908,88.1719897 70.0540181,87.0540009 66.442,86.882 C63.8619871,86.882 61.368012,87.3334955 58.96,88.2365 C56.551988,89.1395045 54.445009,90.3649923 52.639,91.913 C50.832991,93.4610077 49.3925054,95.3099893 48.3175,97.46 C47.2424946,99.6100108 46.705,101.974987 46.705,104.555 L46.705,131 L41.287,131 L41.287,82.625 Z M142.423,106.748 C142.423,109.500014 142.938995,112.079988 143.971,114.488 C145.003005,116.896012 146.400491,119.002991 148.1635,120.809 C149.926509,122.615009 152.033488,124.033995 154.4845,125.066 C156.935512,126.098005 159.579986,126.614 162.418,126.614 C165.256014,126.614 167.878988,126.098005 170.287,125.066 C172.695012,124.033995 174.801991,122.615009 176.608,120.809 C178.414009,119.002991 179.832995,116.896012 180.865,114.488 C181.897005,112.079988 182.413,109.500014 182.413,106.748 C182.413,103.995986 181.897005,101.394512 180.865,98.9435 C179.832995,96.4924877 178.414009,94.364009 176.608,92.558 C174.801991,90.751991 172.695012,89.3330052 170.287,88.301 C167.878988,87.2689948 165.256014,86.753 162.418,86.753 C159.579986,86.753 156.935512,87.2689948 154.4845,88.301 C152.033488,89.3330052 149.926509,90.751991 148.1635,92.558 C146.400491,94.364009 145.003005,96.4924877 143.971,98.9435 C142.938995,101.394512 142.423,103.995986 142.423,106.748 L142.423,106.748 Z M137.005,106.748 C137.005,103.307983 137.671493,100.061515 139.0045,97.0085 C140.337507,93.9554847 142.143489,91.2895114 144.4225,89.0105 C146.701511,86.7314886 149.388985,84.9255067 152.485,83.5925 C155.581015,82.2594933 158.891982,81.593 162.418,81.593 C164.912012,81.593 167.276989,81.9584963 169.513,82.6895 C171.749011,83.4205037 173.769991,84.3664942 175.576,85.5275 C177.382009,86.6885058 178.908494,88.0214925 180.1555,89.5265 C181.402506,91.0315075 182.326997,92.5149927 182.929,93.977 C182.929,92.0849905 182.993499,90.1930095 183.1225,88.301 C183.251501,86.4089905 183.359,84.5170095 183.445,82.625 L187.831,82.625 L187.831,131 L182.929,131 L182.929,125.195 C182.929,124.248995 182.9505,123.346004 182.9935,122.486 C183.0365,121.625996 183.058,120.723005 183.058,119.777 C182.541997,121.239007 181.660506,122.700993 180.4135,124.163 C179.166494,125.625007 177.661509,126.936494 175.8985,128.0975 C174.135491,129.258506 172.114511,130.182997 169.8355,130.871 C167.556489,131.559003 165.084013,131.903 162.418,131.903 C158.891982,131.903 155.581015,131.236507 152.485,129.9035 C149.388985,128.570493 146.701511,126.786011 144.4225,124.55 C142.143489,122.313989 140.337507,119.669515 139.0045,116.6165 C137.671493,113.563485 137.005,110.274018 137.005,106.748 L137.005,106.748 Z M207.826,106.748 C207.826,109.500014 208.341995,112.079988 209.374,114.488 C210.406005,116.896012 211.803491,119.002991 213.5665,120.809 C215.329509,122.615009 217.414988,124.033995 219.823,125.066 C222.231012,126.098005 224.853986,126.614 227.692,126.614 C230.530014,126.614 233.174488,126.098005 235.6255,125.066 C238.076512,124.033995 240.204991,122.615009 242.011,120.809 C243.817009,119.002991 245.235995,116.896012 246.268,114.488 C247.300005,112.079988 247.816,109.500014 247.816,106.748 C247.816,103.995986 247.300005,101.394512 246.268,98.9435 C245.235995,96.4924877 243.817009,94.364009 242.011,92.558 C240.204991,90.751991 238.076512,89.3330052 235.6255,88.301 C233.174488,87.2689948 230.530014,86.753 227.692,86.753 C224.853986,86.753 222.231012,87.2689948 219.823,88.301 C217.414988,89.3330052 215.329509,90.751991 213.5665,92.558 C211.803491,94.364009 210.406005,96.4924877 209.374,98.9435 C208.341995,101.394512 207.826,103.995986 207.826,106.748 L207.826,106.748 Z M202.408,106.748 C202.408,103.307983 203.052994,100.061515 204.343,97.0085 C205.633006,93.9554847 207.417489,91.2895114 209.6965,89.0105 C211.975511,86.7314886 214.662985,84.9255067 217.759,83.5925 C220.855015,82.2594933 224.165982,81.593 227.692,81.593 C230.272013,81.593 232.679989,81.9584963 234.916,82.6895 C237.152011,83.4205037 239.172991,84.3664942 240.979,85.5275 C242.785009,86.6885058 244.332994,87.9999927 245.623,89.462 C246.913006,90.9240073 247.815997,92.3859927 248.332,93.848 C248.246,92.9019953 248.16,91.9345049 248.074,90.9455 C247.988,89.9564951 247.902,88.9890047 247.816,88.043 L247.816,34.25 L253.105,34.25 L253.105,131 L248.332,131 L248.332,125.195 L248.332,119.777 C247.815997,121.239007 246.934506,122.700993 245.6875,124.163 C244.440494,125.625007 242.935509,126.936494 241.1725,128.0975 C239.409491,129.258506 237.388511,130.182997 235.1095,130.871 C232.830489,131.559003 230.358013,131.903 227.692,131.903 C224.165982,131.903 220.855015,131.236507 217.759,129.9035 C214.662985,128.570493 211.975511,126.786011 209.6965,124.55 C207.417489,122.313989 205.633006,119.669515 204.343,116.6165 C203.052994,113.563485 202.408,110.274018 202.408,106.748 L202.408,106.748 Z M293.095,86.753 C290.514987,86.753 288.064012,87.2044955 285.742,88.1075 C283.419988,89.0105045 281.399009,90.2789918 279.679,91.913 C277.958991,93.5470082 276.561505,95.4389893 275.4865,97.589 C274.411495,99.7390108 273.745001,102.060988 273.487,104.555 C273.401,105.587005 273.3795,106.597495 273.4225,107.5865 C273.4655,108.575505 273.572999,109.542995 273.745,110.489 C279.507029,108.166988 285.268971,105.866511 291.031,103.5875 C296.793029,101.308489 302.597971,99.0080116 308.446,96.686 C306.983993,93.7619854 304.877014,91.3755092 302.125,89.5265 C299.372986,87.6774908 296.363016,86.753 293.095,86.753 L293.095,86.753 Z M315.283,99.653 C308.574966,102.319013 301.910033,104.963487 295.288,107.5865 C288.665967,110.209513 282.001034,112.853987 275.293,115.52 C276.755007,118.788016 279.076984,121.45399 282.259,123.518 C285.441016,125.58201 289.05298,126.614 293.095,126.614 C295.761013,126.614 298.254988,126.141005 300.577,125.195 C302.899012,124.248995 304.919991,122.916009 306.64,121.196 C307.242003,121.884003 307.800997,122.550497 308.317,123.1955 C308.833003,123.840503 309.391997,124.506997 309.994,125.195 C307.757989,127.25901 305.221014,128.892994 302.383,130.097 C299.544986,131.301006 296.449017,131.903 293.095,131.903 C289.568982,131.903 286.279515,131.236507 283.2265,129.9035 C280.173485,128.570493 277.507511,126.786011 275.2285,124.55 C272.949489,122.313989 271.143507,119.669515 269.8105,116.6165 C268.477493,113.563485 267.811,110.274018 267.811,106.748 C267.811,103.307983 268.477493,100.040015 269.8105,96.944 C271.143507,93.8479845 272.949489,91.1820112 275.2285,88.946 C277.507511,86.7099888 280.173485,84.9255067 283.2265,83.5925 C286.279515,82.2594933 289.568982,81.593 293.095,81.593 C295.675013,81.593 298.125988,82.0444955 300.448,82.9475 C302.770012,83.8505045 304.89849,85.097492 306.8335,86.6885 C308.76851,88.279508 310.466993,90.171489 311.929,92.3645 C313.391007,94.557511 314.508996,96.9869867 315.283,99.653 L315.283,99.653 Z M379.009,106.877 C379.009,109.629014 379.524995,112.208988 380.557,114.617 C381.589005,117.025012 382.986491,119.131991 384.7495,120.938 C386.512509,122.744009 388.619488,124.162995 391.0705,125.195 C393.521512,126.227005 396.165986,126.743 399.004,126.743 C402.788019,126.743 406.163485,125.861509 409.1305,124.0985 C412.097515,122.335491 414.440991,120.035014 416.161,117.197 C413.064985,112.122975 409.969015,107.092025 406.873,102.104 C403.776985,97.1159751 400.724015,92.0850254 397.714,87.011 C395.047987,87.2690013 392.575511,87.9354946 390.2965,89.0105 C388.017489,90.0855054 386.039508,91.4829914 384.3625,93.203 C382.685492,94.9230086 381.374005,96.9654882 380.428,99.3305 C379.481995,101.695512 379.009,104.210987 379.009,106.877 L379.009,106.877 Z M424.417,101.717 L424.417,106.877 C424.417,110.403018 423.600008,113.799984 421.966,117.068 C423.428007,119.304011 424.825493,121.561489 426.1585,123.8405 C427.491507,126.119511 428.888993,128.376989 430.351,130.613 C429.662997,131.043002 428.975003,131.515997 428.287,132.032 C427.598997,132.548003 426.911003,133.020998 426.223,133.451 C425.018994,131.558991 423.858006,129.667009 422.74,127.775 C421.621994,125.882991 420.461006,124.034009 419.257,122.228 C416.934988,125.238015 414.011018,127.624491 410.485,129.3875 C406.958982,131.150509 403.132021,132.032 399.004,132.032 C395.477982,132.032 392.188515,131.365507 389.1355,130.0325 C386.082485,128.699493 383.416511,126.915011 381.1375,124.679 C378.858489,122.442989 377.052507,119.798515 375.7195,116.7455 C374.386493,113.692485 373.72,110.403018 373.72,106.877 C373.72,103.780985 374.235995,100.835514 375.268,98.0405 C376.300005,95.245486 377.761991,92.751511 379.654,90.5585 C381.546009,88.365489 383.760487,86.5380073 386.2975,85.076 C388.834513,83.6139927 391.607985,82.6250026 394.618,82.109 C393.069992,79.6149875 391.522008,77.0995127 389.974,74.5625 C388.425992,72.0254873 386.921007,69.5100125 385.459,67.016 C383.910992,64.4359871 382.814503,61.7700138 382.1695,59.018 C381.524497,56.2659862 381.416998,53.5570133 381.847,50.891 C382.277002,48.2249867 383.265992,45.7310116 384.814,43.409 C386.362008,41.0869884 388.554986,39.0660086 391.393,37.346 C393.801012,35.8839927 396.273487,35.0025015 398.8105,34.7015 C401.347513,34.4004985 403.819988,34.4649979 406.228,34.895 C408.636012,35.3250021 410.893489,36.0129953 413.0005,36.959 C415.107511,37.9050047 416.977992,38.8939948 418.612,39.926 C418.181998,40.7000039 417.816502,41.4524963 417.5155,42.1835 C417.214498,42.9145037 416.849002,43.6239966 416.419,44.312 C414.870992,43.4519957 413.215509,42.6135041 411.4525,41.7965 C409.689491,40.9794959 407.883509,40.3775019 406.0345,39.9905 C404.185491,39.6034981 402.315009,39.4959991 400.423,39.668 C398.530991,39.8400009 396.682009,40.4849944 394.876,41.603 C390.231977,44.5270146 387.652003,48.1819781 387.136,52.568 C386.619997,56.9540219 387.651987,61.2539789 390.232,65.468 C394.790023,72.7780365 399.283478,80.0879634 403.7125,87.398 C408.141522,94.7080366 412.634977,102.017963 417.193,109.328 C417.795003,107.779992 418.289498,106.210508 418.6765,104.6195 C419.063502,103.028492 419.342999,101.373009 419.515,99.653 L419.515,94.235 C419.773001,91.1389845 420.310496,88.795508 421.1275,87.2045 C421.944504,85.613492 422.933494,84.4740034 424.0945,83.786 C425.255506,83.0979966 426.566993,82.7325002 428.029,82.6895 C429.491007,82.6464998 430.995992,82.625 432.544,82.625 L437.833,82.625 L437.833,87.914 L431.125,87.914 C428.458987,87.914 426.674505,88.9029901 425.7715,90.881 C424.868495,92.8590099 424.417,96.4709738 424.417,101.717 L424.417,101.717 Z" id="made-&amp;-copy"></path>
            </g>
        </g>
    </g>
</svg>